<svg id="Layer_1" data-name="Layer 1" xmlns="http://www.w3.org/2000/svg" viewBox="0 0 2000 2000"><defs></defs><title>fiverr1</title><path fill="#ffffff" d="M171.15,1308.72c1.07,2.86,3.21,8.93,4.76,13.33,6.54,18.45,14.64,40,17,45.93,3.93,9.64,6.54,10.83,10.59,12,2,.59,3.09,1.31,3.09,2.14s-1.19,1.78-3.93,1.78c-3,0-11.9-.48-15.59-.48-3.93,0-8.57.24-11.66.24-2.38,0-3.81-.71-3.81-1.79,0-.59.83-1.55,3.09-2,4.88-1.19,5-3.09,4.76-5-.24-3.09-2.74-9.76-5.47-17.37a3.54,3.54,0,0,0-2.86-1.79c-12.61-.12-18.33.24-20,.36-.36,0-1.07.83-1.31,1.19-3.81,9.52-5.12,14.88-5.12,17.26s1.19,4,5.59,5.24c2.38.6,3.45,1.31,3.45,2.38s-1.67,1.55-3.57,1.55c-2.14,0-5.12-.24-9.52-.24-4.64,0-10,.48-11.78.48-2.74,0-3.45-.71-3.45-1.43s.48-1.67,3-2.38c6.07-1.67,7.38-3.57,10.83-10.59,2.86-5.71,15.71-39.63,20.71-51.41a9.25,9.25,0,0,0,.59-2.14c0-.36-.12-.71.24-1a75.43,75.43,0,0,0,6.19-7.38,3,3,0,0,1,2.14-1.55C169.72,1306.1,170.19,1306.34,171.15,1308.72Zm.24,40.34c-1.79-5.59-7-20-8.69-23.92-.24-.83-1-.59-1.31.36-2.14,5.71-7.85,20.71-8.57,23.56a1,1,0,0,0,.83,1.19c4.64-.12,13.45-.24,17.26-.24A.93.93,0,0,0,171.38,1349.06Z"/><path fill="#ffffff" d="M255,1308.12c.48.12,1.43,1.79,1.55,2.38,0,1.55,1.19,10.71,1.19,11.19,0,1.79-.36,3-1.07,3a4.4,4.4,0,0,1-3.45-2.86,19.8,19.8,0,0,0-5.12-8.45,13.92,13.92,0,0,0-9.52-3.33,12.37,12.37,0,0,0-12.14,12.38c0,7,5.24,10.83,15.95,17.61,14.64,8.93,17.49,16.54,17.49,23.8,0,6.19-3.57,13.33-10.47,17.49-4,2.5-10.95,4.28-16.66,4.28a45,45,0,0,1-17.14-3.09c-1-.48-3.09-3-3.09-3.45-1-4.17-2-9.28-2-12.73,0-.83,1.31-2.5,1.9-2.5,1,0,2.86,2.86,4.64,6.54,3.57,7.26,10.47,10.95,16.54,10.95,5.47,0,12.38-4.28,12.38-11.9,0-5-2.5-9.76-13.45-16.9-12.14-8-18.68-14.52-18.68-25.11a20.51,20.51,0,0,1,7.26-15.59c3.93-3.33,9.52-5.71,18.92-5.71C245.52,1306.1,251.83,1307.53,255,1308.12Z"/><path fill="#ffffff" d="M312.51,1308.12c.48.12,1.43,1.79,1.55,2.38,0,1.55,1.19,10.71,1.19,11.19,0,1.79-.36,3-1.07,3a4.4,4.4,0,0,1-3.45-2.86,19.8,19.8,0,0,0-5.12-8.45,13.92,13.92,0,0,0-9.52-3.33A12.37,12.37,0,0,0,284,1322.4c0,7,5.24,10.83,15.95,17.61,14.64,8.93,17.49,16.54,17.49,23.8,0,6.19-3.57,13.33-10.47,17.49-4,2.5-10.95,4.28-16.66,4.28a45,45,0,0,1-17.14-3.09c-1-.48-3.09-3-3.09-3.45-1-4.17-2-9.28-2-12.73,0-.83,1.31-2.5,1.9-2.5,1,0,2.86,2.86,4.64,6.54,3.57,7.26,10.47,10.95,16.54,10.95,5.47,0,12.38-4.28,12.38-11.9,0-5-2.5-9.76-13.45-16.9-12.14-8-18.68-14.52-18.68-25.11a20.51,20.51,0,0,1,7.26-15.59c3.93-3.33,9.52-5.71,18.92-5.71C303,1306.1,309.3,1307.53,312.51,1308.12Z"/><path fill="#ffffff" d="M327.15,1307.65c5,0,9.64.48,13.92.48s11.07-.48,13.69-.48c2.26,0,3.45.83,3.45,1.78s-1.31,1.9-3.57,2.38c-4.28.83-5.71,2.26-6.43,6.9-.6,3.93-.48,15.35-.48,32.13,0,13.8,2.86,18,6.66,22,3.33,3.33,11.07,5.24,14.52,5.24,8.21,0,17.85-2.62,20.83-15.59,1.43-6.31,2.26-16.3,2.26-32.73,0-7.73-.36-10.23-.6-11.54-.36-3.57-2.38-5.47-7.85-6.78-1.19-.36-3.21-1.31-3.21-2.38,0-.71,1.19-1.43,3.21-1.43,2.86,0,7.14.48,10.95.48,4.76,0,7.74-.48,11.07-.48,1.9,0,3,.83,3,1.78,0,.71-1.43,1.67-3.09,2-5.83,1.43-7.62,3.69-7.74,11.19,0,5.59-.71,19.75-1,25.94-.83,20.11-6.9,28.32-15.35,33.2-5.47,3.09-11.54,3.69-16.3,3.69-10.71,0-18.45-3.69-22.37-7.26-6.66-6.19-9.52-13.33-9.52-32.37,0-8.92-.36-27.49-.48-28.92-.24-2.26-1.43-4.4-6-5.36-1.31-.36-3.21-1.19-3.21-2.26S325.13,1307.65,327.15,1307.65Z"/><path fill="#ffffff" d="M463.64,1342c-.48.36-3,1.67-4.64,2.5-.6.24-.48,1.19-.24,1.67,2.26,4.76,12,21.18,18,28.08a16.81,16.81,0,0,0,10.23,6c1.19.24,2.14,1.19,2.14,1.67,0,.71-1.07,1.55-1.9,1.79-1.9.71-6.43,1-8,1-10.83,0-15.47-4.28-18-7.74-3.33-4.52-9.4-14.28-14.4-22.85-1.07-1.79-2.86-4.4-3.81-5a10.94,10.94,0,0,0-5.71-1.55,1.66,1.66,0,0,0-1.31,1.19c-.24,2.38,0,18.21.36,23.68.36,5.12,1.19,6.31,6.66,7.74,2,.59,2.86,1.43,2.86,2.26,0,1.31-2.26,1.79-3.69,1.79-4.17,0-9.4-.71-15.23-.71-4.17,0-10.12.48-11.42.48-3,0-3.81-.83-3.81-1.9,0-.71,1.31-1.43,2.86-1.9,5.47-1.67,6.78-3.09,7.14-6.9.71-9.16.71-19.16.71-29.27,0-12.73-.24-22.85-.6-26.06-.24-2.86-1.31-4.64-6.9-5.95-1.67-.48-3-1.31-3-2.26s1.43-1.67,3.45-1.67h8.69c4.4,0,14.28-.59,20.71-.59,5.47,0,15,.48,20.71,5.24,3.69,3,6.43,8.69,6.43,14.16C472,1333.23,468.88,1337.88,463.64,1342Zm-11.54-26.42a13.58,13.58,0,0,0-9.64-4.17,18.4,18.4,0,0,0-4.52.83,5.3,5.3,0,0,0-1.43,2.5c-.36,4-.83,24.87-.36,28a1.9,1.9,0,0,0,1.55,1.43c6.07,0,11.54-1.78,12.85-2.62a16.15,16.15,0,0,0,6.66-13.33A18.76,18.76,0,0,0,452.1,1315.62Z"/><path fill="#ffffff" d="M527.76,1308.72c1.07,2.86,3.21,8.93,4.76,13.33,6.54,18.45,14.64,40,17,45.93,3.93,9.64,6.54,10.83,10.59,12,2,.59,3.09,1.31,3.09,2.14s-1.19,1.78-3.93,1.78c-3,0-11.9-.48-15.59-.48-3.93,0-8.57.24-11.66.24-2.38,0-3.81-.71-3.81-1.79,0-.59.83-1.55,3.09-2,4.88-1.19,5-3.09,4.76-5-.24-3.09-2.74-9.76-5.47-17.37a3.54,3.54,0,0,0-2.86-1.79c-12.61-.12-18.33.24-20,.36-.36,0-1.07.83-1.31,1.19-3.81,9.52-5.12,14.88-5.12,17.26s1.19,4,5.59,5.24c2.38.6,3.45,1.31,3.45,2.38s-1.67,1.55-3.57,1.55c-2.14,0-5.12-.24-9.52-.24-4.64,0-10,.48-11.78.48-2.74,0-3.45-.71-3.45-1.43s.48-1.67,3-2.38c6.07-1.67,7.38-3.57,10.83-10.59,2.86-5.71,15.71-39.63,20.71-51.41a9.25,9.25,0,0,0,.59-2.14c0-.36-.12-.71.24-1a75.43,75.43,0,0,0,6.19-7.38,3,3,0,0,1,2.14-1.55C526.33,1306.1,526.81,1306.34,527.76,1308.72Zm.24,40.34c-1.79-5.59-7-20-8.69-23.92-.24-.83-1-.59-1.31.36-2.14,5.71-7.85,20.71-8.57,23.56a1,1,0,0,0,.83,1.19c4.64-.12,13.45-.24,17.26-.24A.93.93,0,0,0,528,1349.06Z"/><path fill="#ffffff" d="M564.81,1307.65c2.62,0,12,.48,18.09.48a7.28,7.28,0,0,1,2.62,1.55c1.79,2.14,5.12,5.83,10,11.54,5.83,7.14,29.16,31.3,35.46,38,.6.59,1.07-.48,1.07-.71.6-3.45.24-16.9.24-26.9,0-4-.36-9.64-.71-12.73-.24-2.38-1.43-5.12-7.38-6.66-2.38-.59-3.93-1.31-3.93-2.74,0-.83,1.31-1.43,3.45-1.43,3,0,5.71.12,8.09.12,5.71,0,10.59-.59,13.69-.59,2,0,2.86.71,2.86,1.55s-.83,1.79-3,2.38c-6.19,2-6.78,4.17-7.38,8.93-.36,4.28-1.19,34.39-1.19,44.51,0,5,.71,15.47.71,18.56a2.73,2.73,0,0,1-1.9,2.26c-2.5,0-5.35-3.09-6.43-4.52-2.26-3-4.52-5.71-7.74-9.64-11.19-13.69-30.58-34.15-41.17-46.65-.6-.71-1.31.24-1.31.59-.24,3.21-.48,6-.6,15.35-.12,16.54-.36,25.59.24,31.42.48,3.81,1.79,5.83,7.5,7.62,2.5.71,3.33,1.55,3.33,2.26,0,1.31-1.67,1.78-3.93,1.78-3.45,0-6.19-.48-10.35-.48-2.62,0-9.28.36-11.31.36-1.67,0-3.09-.6-3.09-1.55,0-1.19,1.43-1.78,2.62-2.14,5.47-1.67,8.33-2.62,8.69-11.54.6-13.33,2.14-36.18,2.14-44.75,0-4.76-.36-6.19-.71-6.66-2.14-2.62-3-4.28-9.16-5.71-1.31-.24-3.09-1.19-3.09-2S562.67,1307.65,564.81,1307.65Z"/><path fill="#ffffff" d="M715.34,1308a78.68,78.68,0,0,0,8.57,1.79c.83,0,1.79,1.43,1.79,3.21.12,3.33.36,7.5.6,10.95.12,2.5-.71,4.52-2,4.52-.6,0-1.67-1.43-2.26-3.21-1.19-3.69-3-6.9-5-8.45-5.12-4.28-11.19-6.9-17.61-6.9-18.92,0-27.85,15-27.85,33.08,0,8,1.43,14.88,4,20.11,6.54,13.09,17.37,17.73,26.66,17.73,1.55,0,7.38-.24,11.54-2.74a26.78,26.78,0,0,0,10.35-10.83c1.43-2.62,2.26-3.69,3.21-3.69,1.31,0,1.31,3.09,1,4.4a55.41,55.41,0,0,1-3.57,10.35c-.36,1.07-2.5,3-4.28,3.81a63.78,63.78,0,0,1-20.83,3.45c-17.61,0-30.11-7.85-35-13.45a39.21,39.21,0,0,1-10-26.78,37.77,37.77,0,0,1,13.09-28.56c10.12-8.33,22.37-10.71,32.13-10.71A67.07,67.07,0,0,1,715.34,1308Z"/><path fill="#ffffff" d="M779,1308.12a91.49,91.49,0,0,0,10.47-.71c.48-.12,1.31.71,1.43,1.55.12,2.14.12,10.35.12,12.73,0,1.67-.83,3.33-1.9,3.33s-2-1.79-2.26-3c-1.55-6.67-4.88-8.45-7.62-8.93a107,107,0,0,0-16.54-.71c-.48,0-1.43.48-1.55,3.33s-.6,19.52-.48,26.06a1.38,1.38,0,0,0,1.19,1.19h9.52c8.45,0,8.21-.48,10.47-5.71.71-1.79,1.55-3.09,2.62-3.09s1.31,2,1.19,3.33c-.24,3.33-.48,5.47-.48,8.21,0,3.21.24,5.12.48,8.09.12,2.14-.6,3.57-1.55,3.57s-1.9-1.43-2.26-2.62c-1.55-5.24-3.09-6.07-7.74-6.43-3.81-.36-8.21-.36-11.9-.36-.48,0-1.55,1.19-1.55,1.43-.48,3.33-.36,12.61-.24,16.54.12,2.86,0,7.26.48,9.76.36,1.07,1.43,2.62,2.62,2.86a59.1,59.1,0,0,0,9.64.71c3.57,0,8,0,10.95-1.07,3.57-1.31,6.78-4.17,9.4-8.81,1.67-3.09,2.74-4.17,3.69-4.17,1.19,0,1.07,2.5,1,3.45a97.27,97.27,0,0,1-4.52,13.8c-.36.83-2.26,1.55-2.86,1.55-1.31,0-30.7-.59-39.63-.59-8,0-9.28.59-13.57.59-2.26,0-4-.36-4-1.55s1.55-1.9,3.57-2.38c6.07-1.43,7.62-2.62,8.09-9,.36-5,1-14,1-28.8,0-14,.12-19.52-.12-23-.24-4.28-1.19-6.66-6.31-7.62-2.5-.48-3.81-1-3.81-2.14s2-1.79,3.69-1.79c5.59,0,15.35.36,21.54.36Z"/><path fill="#ffffff" d="M860.38,1311.1a7.29,7.29,0,0,0-3.21,1.07c-.36.36-1,1.67-1.07,4.4-.12,2.38-.12,17.14-.24,30.7,0,10.83.24,18.56.24,21.54.12,7.26.48,9.4,7.38,11.19,2.38.48,3.33,1.43,3.33,2.5s-2,1.67-3.69,1.67c-3.09,0-9.88-.71-15.11-.71-3.45,0-9.28.48-13,.48-2.74,0-4.4-.59-4.4-1.9,0-.83,1.67-1.79,2.86-2.14,5.83-1.43,7.26-3.21,7.62-8.69.36-4.76.71-12.5.71-18.56,0-3.81,0-30.46-.24-33.92-.36-4.17-1-6.07-7.5-6.9-1.55-.24-2.74-1.07-2.74-1.79,0-1,1.07-1.67,2.5-1.9.71-.12,2.86-.12,3.93-.12,7.62,0,17.37-1,22.73-1,11.42,0,19.16,2.14,24,6.9a22.48,22.48,0,0,1,6.9,16.07c0,9.76-4.4,15-7.85,18-3.09,2.62-9.64,5.36-14.28,5.36a23.37,23.37,0,0,1-6.19-.83c-1.67-.71-2.5-1.31-2.5-2.38,0-.48.83-1.19,1.79-1.19h1.78c5,0,12.38-6,12.38-18.33C876.56,1321.1,870.14,1311.1,860.38,1311.1Z"/><path fill="#ffffff" d="M984,1344.66c0,15.59-6.66,25.7-15,32.37-6.78,5.24-16.9,8.57-26.06,8.57-12.5,0-23.44-4.76-30.94-12.73-6.43-6.9-10.23-16.3-10.23-27.25,0-14.52,6.43-23.8,15.35-30.94a44.64,44.64,0,0,1,25.35-8.57C968.79,1306.1,984,1325.62,984,1344.66Zm-57.84-28.32c-4,3.93-8.33,12.5-8.33,26.66,0,18.33,11.19,38.2,28.56,38.2a17,17,0,0,0,12.14-4.88c5-5,9.16-15.23,9.16-28,0-9.4-3.69-23.68-12.38-31.65-4-3.57-10.47-6.43-15.71-6.43S928.92,1313.6,926.19,1316.33Z"/><path fill="#ffffff" d="M985.47,1307.65c5.83,0,9,.48,14.52.48,4.76,0,9.64-.36,10.71-.36,2,0,3.33.71,3.33,1.55s-.71,1.79-3.33,2.74-3.33,2.38-2.62,4.28c2.38,6,12.5,28.2,21.78,48.43.24.36.59.71,1.07-.12.83-1.55,5.36-9.64,8.21-16.54a2,2,0,0,0,0-1.67c-4.52-10.95-8.09-18.45-11.78-25.47-3-6.07-3.81-8.09-8.21-9.28-2-.59-2.86-1.43-2.86-2.38s1.9-1.67,3.81-1.67c1.67,0,7.38.48,11.42.48,5.59,0,11.07-.36,12.38-.36,1.55,0,3,.6,3,1.67s-1.31,1.9-3,2.38c-3,.71-3.69,2-2.5,5.35s2.38,6,6.78,15.47c.24.59.59.48,1-.12,2.86-5.59,3.69-7.14,6-12.26,2.86-6.55.83-7.5-2.5-8.57-1.43-.59-2.86-1.43-2.86-2.26s.71-1.55,3.57-1.55c2.38,0,4.28.24,8.21.24s7.62-.24,9.52-.24,2.86.6,2.86,1.31c0,1.19-1.07,1.9-3.45,2.5-4.17,1.43-6.31,2.26-9.88,8.21-1.19,2-4.52,7.62-9.4,16.9a2.15,2.15,0,0,0,.12,1.9c3.93,8.69,9,19.75,12.14,25.47.36.59.83.24,1.19-.36,5.71-12.14,12-26.3,18.92-43.32,2.14-5.59.83-7.62-4-9-1.67-.48-3.09-1.31-3.09-2.14,0-1.43,1.79-1.67,3.57-1.67,2.74,0,5.83.48,8.21.48,3.81,0,6.9-.36,10.71-.36,2.14,0,3.57.48,3.57,1.31,0,1.07-1.31,1.9-3.45,2.5-4.52,1-6.07,2.38-9.4,8.69-1.55,2.86-7.85,16.07-15.95,33.8-8.09,18.45-8.69,19.28-12,28-.6,1.67-2.38,3-3.45,3-.71,0-1.67-.59-2.14-2.26-3.45-8.81-9-19.75-13.57-29.63-.24-.36-.59-.59-.83-.12a316.69,316.69,0,0,0-14.28,30.11,5.7,5.7,0,0,1-3.81,2.74c-.83-.48-1.07-.36-1.9-2.26-.83-2.14-2.62-7.85-7.5-18.8-4.64-10.71-15.47-35.34-19.75-43.67-3-5.83-3.93-8.21-9.16-9.52-1.31-.24-3.21-1.07-3.21-2.26C982,1308.36,983.45,1307.65,985.47,1307.65Z"/><path fill="#ffffff" d="M1146.34,1308.12a91.48,91.48,0,0,0,10.47-.71c.48-.12,1.31.71,1.43,1.55.12,2.14.12,10.35.12,12.73,0,1.67-.83,3.33-1.9,3.33s-2-1.79-2.26-3c-1.55-6.67-4.88-8.45-7.62-8.93a107,107,0,0,0-16.54-.71c-.48,0-1.43.48-1.55,3.33s-.59,19.52-.48,26.06a1.38,1.38,0,0,0,1.19,1.19h9.52c8.45,0,8.21-.48,10.47-5.71.71-1.79,1.55-3.09,2.62-3.09s1.31,2,1.19,3.33c-.24,3.33-.48,5.47-.48,8.21,0,3.21.24,5.12.48,8.09.12,2.14-.59,3.57-1.55,3.57s-1.9-1.43-2.26-2.62c-1.55-5.24-3.09-6.07-7.73-6.43-3.81-.36-8.21-.36-11.9-.36-.48,0-1.55,1.19-1.55,1.43-.48,3.33-.36,12.61-.24,16.54.12,2.86,0,7.26.48,9.76.36,1.07,1.43,2.62,2.62,2.86a59.1,59.1,0,0,0,9.64.71c3.57,0,8,0,10.95-1.07,3.57-1.31,6.78-4.17,9.4-8.81,1.67-3.09,2.74-4.17,3.69-4.17,1.19,0,1.07,2.5,1,3.45a97.21,97.21,0,0,1-4.52,13.8c-.36.83-2.26,1.55-2.86,1.55-1.31,0-30.7-.59-39.63-.59-8,0-9.28.59-13.57.59-2.26,0-4-.36-4-1.55s1.55-1.9,3.57-2.38c6.07-1.43,7.62-2.62,8.09-9,.36-5,1-14,1-28.8,0-14,.12-19.52-.12-23-.24-4.28-1.19-6.66-6.31-7.62-2.5-.48-3.81-1-3.81-2.14s2-1.79,3.69-1.79c5.59,0,15.35.36,21.54.36Z"/><path fill="#ffffff" d="M1223,1342c-.48.36-3,1.67-4.64,2.5-.59.24-.48,1.19-.24,1.67,2.26,4.76,12,21.18,18,28.08a16.81,16.81,0,0,0,10.23,6c1.19.24,2.14,1.19,2.14,1.67,0,.71-1.07,1.55-1.9,1.79-1.9.71-6.43,1-8,1-10.83,0-15.47-4.28-18-7.74-3.33-4.52-9.4-14.28-14.4-22.85-1.07-1.79-2.86-4.4-3.81-5a10.94,10.94,0,0,0-5.71-1.55,1.66,1.66,0,0,0-1.31,1.19c-.24,2.38,0,18.21.36,23.68.36,5.12,1.19,6.31,6.66,7.74,2,.59,2.86,1.43,2.86,2.26,0,1.31-2.26,1.79-3.69,1.79-4.17,0-9.4-.71-15.23-.71-4.17,0-10.12.48-11.42.48-3,0-3.81-.83-3.81-1.9,0-.71,1.31-1.43,2.86-1.9,5.47-1.67,6.78-3.09,7.14-6.9.71-9.16.71-19.16.71-29.27,0-12.73-.24-22.85-.59-26.06-.24-2.86-1.31-4.64-6.9-5.95-1.67-.48-3-1.31-3-2.26s1.43-1.67,3.45-1.67h8.69c4.4,0,14.28-.59,20.71-.59,5.47,0,15,.48,20.71,5.24,3.69,3,6.43,8.69,6.43,14.16C1231.3,1333.23,1228.21,1337.88,1223,1342Zm-11.54-26.42a13.57,13.57,0,0,0-9.64-4.17,18.4,18.4,0,0,0-4.52.83,5.3,5.3,0,0,0-1.43,2.5c-.36,4-.83,24.87-.36,28a1.9,1.9,0,0,0,1.55,1.43c6.07,0,11.54-1.78,12.85-2.62a16.16,16.16,0,0,0,6.66-13.33A18.75,18.75,0,0,0,1211.43,1315.62Z"/><path fill="#ffffff" d="M1321.86,1308.12c.48.12,1.43,1.79,1.55,2.38,0,1.55,1.19,10.71,1.19,11.19,0,1.79-.36,3-1.07,3a4.4,4.4,0,0,1-3.45-2.86,19.79,19.79,0,0,0-5.12-8.45,13.92,13.92,0,0,0-9.52-3.33,12.37,12.37,0,0,0-12.14,12.38c0,7,5.24,10.83,15.95,17.61,14.64,8.93,17.49,16.54,17.49,23.8,0,6.19-3.57,13.33-10.47,17.49-4,2.5-10.95,4.28-16.66,4.28a45,45,0,0,1-17.14-3.09c-1-.48-3.09-3-3.09-3.45-1-4.17-2-9.28-2-12.73,0-.83,1.31-2.5,1.9-2.5,1,0,2.86,2.86,4.64,6.54,3.57,7.26,10.47,10.95,16.54,10.95,5.47,0,12.38-4.28,12.38-11.9,0-5-2.5-9.76-13.45-16.9-12.14-8-18.68-14.52-18.68-25.11a20.51,20.51,0,0,1,7.26-15.59c3.93-3.33,9.52-5.71,18.92-5.71C1312.34,1306.1,1318.65,1307.53,1321.86,1308.12Z"/><path fill="#ffffff" d="M1332.69,1307.53c2.86,0,10,.71,15.47.71,3.33,0,6.9-.24,11.54-.24,1.9,0,3,.59,3,1.31a3.14,3.14,0,0,1-2.74,2.5c-4,.83-4.28,2.74-2.74,5.83,1.43,2.62,8.57,15,13.69,23.68.24.36,1.19.12,1.55-.36,1.9-3,10.23-16.18,13.21-22,2-3.69,1.9-6.07-3.69-7.26-1.67-.36-3.21-1.43-3.21-2.62,0-.83,1.67-1.19,2.62-1.19,3.09,0,5.35.24,8.09.24,3.33,0,12.26-.59,14.16-.59,1.67,0,2.74.24,2.74,1.31s-1.31,1.9-3.33,2.5c-5.59,1.43-8.09,4.4-12,9.16-5,6.19-12.14,17.49-15.83,23.21a14.7,14.7,0,0,0-1.67,6.43c0,6.67.36,19.64.83,23.56.36,3.09,1.19,4.64,7.62,6.31,2.26.59,3.09,1.43,3.09,2.26s-1.31,1.67-3.69,1.67c-1.67,0-10.35-.59-13.09-.59-7.85,0-15.71.83-17.26.83-1.78,0-3.09-.48-3.09-1.43,0-.71,1-1.9,3.45-2.5,6.31-1.79,7.62-3.69,7.74-5.47.36-5.47.12-18.56.12-23a26.79,26.79,0,0,0-1.07-5.83c-2-4-9-15.35-14.16-23.68s-7.5-10-11.42-10.95c-2.14-.48-3.45-1.31-3.45-2.38S1330.67,1307.53,1332.69,1307.53Z"/><path fill="#ffffff" d="M1450.14,1308.12c.48.12,1.43,1.79,1.55,2.38,0,1.55,1.19,10.71,1.19,11.19,0,1.79-.36,3-1.07,3a4.4,4.4,0,0,1-3.45-2.86,19.79,19.79,0,0,0-5.12-8.45,13.92,13.92,0,0,0-9.52-3.33,12.37,12.37,0,0,0-12.14,12.38c0,7,5.24,10.83,15.95,17.61,14.64,8.93,17.49,16.54,17.49,23.8,0,6.19-3.57,13.33-10.47,17.49-4,2.5-10.95,4.28-16.66,4.28a45,45,0,0,1-17.14-3.09c-1-.48-3.09-3-3.09-3.45-1-4.17-2-9.28-2-12.73,0-.83,1.31-2.5,1.9-2.5,1,0,2.86,2.86,4.64,6.54,3.57,7.26,10.47,10.95,16.54,10.95,5.47,0,12.38-4.28,12.38-11.9,0-5-2.5-9.76-13.45-16.9-12.14-8-18.68-14.52-18.68-25.11a20.51,20.51,0,0,1,7.26-15.59c3.93-3.33,9.52-5.71,18.92-5.71C1440.62,1306.1,1446.93,1307.53,1450.14,1308.12Z"/><path fill="#ffffff" d="M1523.56,1307.89c5.83-.48,7.62-1,9.16-1.9,1-.6,1.43-1,1.9-1s1.55,1.31,1.07,3a84.47,84.47,0,0,0-2.5,13.8c0,1.07-.83,3.09-2.26,3.09-.83,0-1.55-.59-2-3.69-1.19-6.78-2.74-7.85-8.57-8.09-2.86,0-11.54.12-14.52.59a1.62,1.62,0,0,0-1.19,1.43c0,5.47-.12,14.52-.12,24.75,0,13.69.12,26.3.59,32.25.36,3.81,1.31,6.19,9.28,7.85,1.67.36,3,1.67,3,2.38,0,1.07-2,1.55-3.33,1.55-1,0-14.52-.48-17.61-.48-3.69,0-12.85.71-14.88.71-2.26,0-3.69-.48-3.69-1.43s1.43-2.14,2.62-2.5c7.74-1.9,8.21-3.45,8.69-11.78.48-7,1.07-30.7,1.07-39.75,0-6.78-.12-10.83-.12-13.92a1.7,1.7,0,0,0-1.31-1.67c-2.26-.36-10.83-.48-13.45-.48-1.9,0-5.24,1.19-6.54,2.74a34.35,34.35,0,0,0-4,6.31c-1.43,2.38-2.14,3.09-2.62,3.09-1.19,0-1.79-1.43-1.79-2.62,0-2.26,2.14-10,2.26-16.07,0-.48,1.07-2.38,1.9-2.38s1.31,1,2,1.9a9.62,9.62,0,0,0,4.88,1.9c2.62.24,18.33.71,26.42.71C1504.52,1308.24,1519.64,1308.12,1523.56,1307.89Z"/><path fill="#ffffff" d="M1586.78,1308.12a91.48,91.48,0,0,0,10.47-.71c.48-.12,1.31.71,1.43,1.55.12,2.14.12,10.35.12,12.73,0,1.67-.83,3.33-1.9,3.33s-2-1.79-2.26-3c-1.55-6.67-4.88-8.45-7.62-8.93a107,107,0,0,0-16.54-.71c-.48,0-1.43.48-1.55,3.33s-.59,19.52-.48,26.06a1.38,1.38,0,0,0,1.19,1.19h9.52c8.45,0,8.21-.48,10.47-5.71.71-1.79,1.55-3.09,2.62-3.09s1.31,2,1.19,3.33c-.24,3.33-.48,5.47-.48,8.21,0,3.21.24,5.12.48,8.09.12,2.14-.59,3.57-1.55,3.57s-1.9-1.43-2.26-2.62c-1.55-5.24-3.09-6.07-7.73-6.43-3.81-.36-8.21-.36-11.9-.36-.48,0-1.55,1.19-1.55,1.43-.48,3.33-.36,12.61-.24,16.54.12,2.86,0,7.26.48,9.76.36,1.07,1.43,2.62,2.62,2.86a59.1,59.1,0,0,0,9.64.71c3.57,0,8,0,10.95-1.07,3.57-1.31,6.78-4.17,9.4-8.81,1.67-3.09,2.74-4.17,3.69-4.17,1.19,0,1.07,2.5,1,3.45a97.21,97.21,0,0,1-4.52,13.8c-.36.83-2.26,1.55-2.86,1.55-1.31,0-30.7-.59-39.63-.59-8,0-9.28.59-13.57.59-2.26,0-4-.36-4-1.55s1.55-1.9,3.57-2.38c6.07-1.43,7.62-2.62,8.09-9,.36-5,1-14,1-28.8,0-14,.12-19.52-.12-23-.24-4.28-1.19-6.66-6.31-7.62-2.5-.48-3.81-1-3.81-2.14s2-1.79,3.69-1.79c5.59,0,15.35.36,21.54.36Z"/><path fill="#ffffff" d="M1617,1307.65c7.38,0,9.88.48,19.28.48a3.28,3.28,0,0,1,1.31,1.67,73.57,73.57,0,0,0,4.52,10.71c6,12.26,17.14,35.7,19.4,38.68.24.24,1,.48,1.07.36,2.74-5,16.07-31.18,19.87-40.46a84.21,84.21,0,0,0,3.45-9.16,4.5,4.5,0,0,1,1.43-1.79c8.33,0,17.85-.48,18.92-.48,1.43,0,3.21.36,3.21,1.43s-1.31,1.79-3.45,2.26a24.62,24.62,0,0,0-5.35,2c-2,1-2.86,3.45-2.86,9.52,0,20,.71,43.44,1.43,49.39.6,3.93,1.67,6,7.62,7.5,2,.48,3.21,1.67,3.21,2.5,0,1.31-1.78,1.79-3.57,1.79-1.31,0-12.5-.59-16.78-.59-2.14,0-8.57.36-11.31.36-1.9,0-3.45-.48-3.45-1.67s1.67-2.14,3.33-2.5c4.88-1.19,5.24-4.88,5.59-9.64.48-5.83.71-36.53.6-42.48,0-1.19-.71-1.79-1.19-.83-3.93,7.74-13.92,28.92-17.37,36.77-3.09,6.9-5.59,13.21-7.14,17-1.43,3.45-2.74,3.69-3.33,3.69s-1.67-1.31-2.26-2.62c-.6-1.9-2.14-6.54-4.4-12.14-6.19-15.23-16.54-37.49-18.8-41.89-.36-.71-.71-.48-.71.36-1,8-2,28.68-1.9,41.53.12,6.78,1.19,8.33,7.26,10.23,2.5.83,3.45,1.55,3.45,2.62s-1.43,1.67-3.45,1.67c-3.57,0-8.09-.48-10.95-.48s-7.85.48-10.59.48c-1.79,0-3.69-.24-3.69-1.67,0-.83,1.19-1.55,3.21-2.26,6.54-2.26,7.85-3.81,8.92-12.14,1.07-9,3.81-37.37,3.93-48,0-1.55-.24-6.07-4.52-7.14-1.9-.6-3.45-1.07-4.88-1.43-.83-.24-2.5-1.07-2.5-2.14S1614.38,1307.65,1617,1307.65Z"/><path fill="#ffffff" d="M1760.27,1308.12c.48.12,1.43,1.79,1.55,2.38,0,1.55,1.19,10.71,1.19,11.19,0,1.79-.36,3-1.07,3a4.4,4.4,0,0,1-3.45-2.86,19.79,19.79,0,0,0-5.12-8.45,13.92,13.92,0,0,0-9.52-3.33,12.37,12.37,0,0,0-12.14,12.38c0,7,5.24,10.83,15.95,17.61,14.64,8.93,17.49,16.54,17.49,23.8,0,6.19-3.57,13.33-10.47,17.49-4,2.5-10.95,4.28-16.66,4.28a45,45,0,0,1-17.14-3.09c-1-.48-3.09-3-3.09-3.45-1-4.17-2-9.28-2-12.73,0-.83,1.31-2.5,1.9-2.5,1,0,2.86,2.86,4.64,6.54,3.57,7.26,10.47,10.95,16.54,10.95,5.47,0,12.38-4.28,12.38-11.9,0-5-2.5-9.76-13.45-16.9-12.14-8-18.68-14.52-18.68-25.11a20.51,20.51,0,0,1,7.26-15.59c3.93-3.33,9.52-5.71,18.92-5.71C1750.75,1306.1,1757.06,1307.53,1760.27,1308.12Z"/><polygon fill="#cf212f" points="816 763 748.75 856.31 748.74 856.32 558.71 1119.98 465 1250 132 1250 132 763 816 763"/><polygon fill="#fdd705" points="558.71 1119.98 563.5 1097.5 419.25 1250 408.5 1250 546.5 1079.5 293.5 1226.5 531.5 1057.5 254.5 1127.5 526.5 1034.5 241.5 1022.5 526.5 1008.5 258.5 917.5 532.5 984.5 303.5 822.5 546.5 963.5 385 763 393.75 763 565.5 946.5 490 763 499.5 763 589.5 936.5 571 763 583 763 613.5 928.5 644.5 763 656.5 763 639.5 929.5 726.5 763 737.75 763 663.5 944.5 748.74 856.32 558.71 1119.98"/><path fill="#ffffff" d="M807.5,1221.5l28.37-2.69c17.08-2.87,21.58-7.9,23-12.21,1.7-5,2.62-22.26,3.2-48.82l2-61.75c.38-11.49-4.74-12.92-29.24-12.92H747.38c-16.81,0-19.15.72-28,14.36l-49.05,83.29c-21.87,34.74-2.95,34.46,15.45,38.05l15.68,2.69c2.5,5,2.43,22.45-5.78,26-24-1.44-64-1.44-93.2-2.15-17.6,0-45.27,1.18-58.49,1.79-10.36.48-18.33-9.63-14.85-19.4a14.57,14.57,0,0,1,4.32-6.27l23-3c17.53-2.15,36-12,54-34.15,22.7-27.87,199-291.85,199-291.85,31.39-45.23,57.06-80.18,62-101,35-1,75.7-31.49,77.1-31.49,9.1,0,12.09,3.59,11.25,14.36-1.43,20.82-2,47.39-1.73,98.37l.12,281.46c.15,43.08.87,59.59,25.32,63.9l25.15,4.31c3,3.59,5.55,19.79-2.21,24.1-33.13-1.44-77.68-1.12-114.09-1.12-35,0-51.22.68-83.91,2.12C795.5,1243.5,799.49,1223.12,807.5,1221.5Zm34.39-176.44c17.28,0,21.81-2.4,22.57-23.21L866,957c.68-34.41,1.58-67.22.29-84-13.24,17.61-36.19,51.22-59.43,88l-38.3,60c-13.79,21.61-10.81,24,8,24Z"/><path fill="#ffffff" d="M1097.65,887.82c0-72.52-1.44-81.13-31.59-84.72l-22.26-2.87c-6.46-3.59-6.46-19.39,1.44-24.41,47.39-3.59,103.39-6.46,165.86-6.46,61,0,101.24,7.18,131.39,18.67,43.8,16.51,87.6,54.57,87.6,124.21,0,117.75-118.47,135-156.52,135-8.62,0-15.08,0-23-.72-5.74-3.59-7.18-15.08-2.15-19.39,59.59-18.67,71.8-61,71.8-114.16s-27.28-110.57-91.9-110.57c-26.57,0-28,7.9-28,36.62v303c0,66.77,4.31,72.52,36.62,77.54l23,3.59c7.9,3.59,7.9,20.1,0,24.41-40.21-1.44-75.39-2.15-109.85-2.15s-68.93.72-107.7,2.15c-7.9-4.31-9.33-20.82-1.44-24.41l20.1-3.59c32.31-5.74,36.62-10.77,36.62-77.54Z"/><path fill="#ffffff" d="M1586.6,1256.87c-66.06,0-107-18.67-122.06-27.28-13.64-15.8-23-67.49-23-116.32,5-9.33,21.54-10.05,27.28-2.15,14.36,46.67,62.47,112.73,123.5,112.73,53.13,0,77.54-36.62,77.54-72.52,0-58.16-54.57-92.62-97.65-114.16-51.7-25.85-108.42-68.93-108.42-140C1463.11,816,1526.29,760,1630.4,760c23.69,0,53.13,2.87,81.85,11.49a170.1,170.1,0,0,0,24.41,5.74c5.74,15.8,12.92,54.57,12.92,102.67-3.59,8.62-21.54,9.33-28,2.15-12.21-36.62-43.08-89-94.78-89-47.39,0-73.24,30.87-73.24,66.77,0,33,29.44,63.18,65.34,81.85l47.39,25.13c44.52,23.69,101.24,65.34,101.24,144.32C1767.54,1199.43,1695,1256.87,1586.6,1256.87Z"/><path fill="#ffffff" d="M1793.21,782l-.12-.05a59.4,59.4,0,0,0-6.33-2.27,31.27,31.27,0,0,1-5.53-2l-.11,0a5,5,0,0,1-2.05-1.39,4.92,4.92,0,0,1-1.48-3.72c0-3.57,3-6.17,7-6.17,4.27,0,7.27,2.45,8.68,7.08l.32,1.05,6.95-2.88-.29-.88a14.79,14.79,0,0,0-7.91-9.35,16.9,16.9,0,0,0-7.57-1.59c-8.82,0-15.21,5.75-15.21,13.67,0,4.81,2.4,8.54,7.19,11.1a42.71,42.71,0,0,0,6.69,2.4c5,1.5,6.33,2,7.69,3.09a5.27,5.27,0,0,1,2,4.35c0,4-3.08,6.6-7.84,6.6-4.95,0-8.19-2.43-10.19-7.64l-.37-1-7.35,3.14.36.91a16.44,16.44,0,0,0,3.07,5.47c3.58,4.23,8.26,6.29,14.3,6.29,9.61,0,16.33-5.93,16.33-14.41C1801.49,788.19,1798.71,784.24,1793.21,782Z"/><polygon points="1834.7 760.62 1824.22 790.03 1813.68 760.62 1803.94 760.62 1803.94 807.17 1811.82 807.17 1811.39 775.51 1822.8 805.14 1825.47 805.01 1837.03 775.53 1836.49 807.17 1844.38 807.17 1844.38 760.62 1834.7 760.62"/></svg>